# xmcd CD database file
#
# Track frame offsets:
#	150
#	14304
#	30919
#	44102
#	63512
#	78684
#	105199
#	117337
#	131002
#	146754
#	159167
#	175280
#	189910
#	208002
#	221386
#	238779
#	252797
#	265370
#	281469
#	302376
#	319074
#
# Disc length: 4417 seconds
#
# Revision: 2
# Processed by: cddbd v1.5.2PL0 Copyright (c) Steve Scherf et al.
# Submitted via: CDex 1.51
#
DISCID=24113f15
DTITLE=Gil Ventura - Golden Sax for Lovers (Vol 2)
DYEAR=2001
DGENRE=Jazz
TTITLE0=New York New York
TTITLE1=The shadow of your smile
TTITLE2=Pantera Rosa
TTITLE3=I just called to say i love you
TTITLE4=The way were
TTITLE5=Medley
TTITLE6=I left my heart in San Francisco
TTITLE7=Il mio nome e` nessuno
TTITLE8=Mandy
TTITLE9=A blue shadow
TTITLE10=As time goes by
TTITLE11=Ultimo tango a parigi
TTITLE12=C`era una volta il west
TTITLE13=Moonraker
TTITLE14=Taxi driver
TTITLE15=E` nata una stella
TTITLE16=Solamente una vez
TTITLE17=Vina del mar
TTITLE18=El condor pasa
TTITLE19=I got it bad and that ain`t good
TTITLE20=I understand
EXTD=YEAR: 2001
EXTT0=
EXTT1=
EXTT2=
EXTT3=
EXTT4=
EXTT5=
EXTT6=
EXTT7=
EXTT8=
EXTT9=
EXTT10=
EXTT11=
EXTT12=
EXTT13=
EXTT14=
EXTT15=
EXTT16=
EXTT17=
EXTT18=
EXTT19=
EXTT20=
PLAYORDER=
